<svg xmlns="http://www.w3.org/2000/svg" viewBox="0 0 32 32"><defs><style>.cls-1{fill:#1abc9c;}.cls-2{fill:#1fdeb9;}.cls-3{fill:#fff;}.cls-4{fill:#2fd390;}</style></defs><title>hamrofavAsset 2</title><g id="Layer_2" data-name="Layer 2"><g id="Layer_2-2" data-name="Layer 2"><path class="cls-1" d="M6.39,27.9A9.3,9.3,0,1,1,25,27.9Z"/><path class="cls-2" d="M20.9,13.19a5.49,5.49,0,0,1-.56,2.43,5.19,5.19,0,0,1-4.66,3,5.3,5.3,0,0,1-5.2-5.19,1.62,1.62,0,0,1,0-.22,5.51,5.51,0,0,1,.58-2.47v0a5.28,5.28,0,0,1,1.8-2.06A4.89,4.89,0,0,1,14.12,8h0l.43-.11L15,7.84l.44,0h.26a5.22,5.22,0,0,1,4.81,3.31A5.57,5.57,0,0,1,20.9,13.19Z"/><path class="cls-2" d="M16,0A16.08,16.08,0,0,0,1.59,9.05,15.76,15.76,0,0,0,0,16,16,16,0,0,0,24.18,29.76a16.21,16.21,0,0,0,2.1-1.5,15.86,15.86,0,0,0,3.39-3.94,15.42,15.42,0,0,0,1.84-4.38A15.81,15.81,0,0,0,32,16,16,16,0,0,0,16,0Zm8.25,24.26c-.25.25-.5.48-.76.7A12.18,12.18,0,0,1,22,26a11.56,11.56,0,0,1-5.28,1.61q-.35,0-.69,0a9.42,9.42,0,0,1-1.06-.06A11.59,11.59,0,0,1,10,26a12,12,0,0,1-2-1.5c-.24-.23-.48-.48-.7-.73a11.72,11.72,0,0,1-3-7.81,11.49,11.49,0,0,1,1.16-5.07A11.68,11.68,0,0,1,27.68,16a12,12,0,0,1-.36,2.87,11.49,11.49,0,0,1-.91,2.41A11.77,11.77,0,0,1,24.25,24.26Z"/><path class="cls-1" d="M20.49,11.09h-.08a1.74,1.74,0,0,0-1.82,1c-.19.59-.94.46-1.86.14a12.57,12.57,0,0,0-3.32-1,5.51,5.51,0,0,1-1.9-.29,2.06,2.06,0,0,1-.46-.23l-.05,0h0A4.73,4.73,0,0,1,12.82,8.6,5.05,5.05,0,0,1,14.12,8h0a5.52,5.52,0,0,1,1.28-.23h.26a2.67,2.67,0,0,1,.32,0,5.31,5.31,0,0,1,4.62,3A.22.22,0,0,1,20.49,11.09Z"/><path class="cls-3" d="M16.26,20a.06.06,0,0,1-.06.05h-.77a.06.06,0,0,1-.06-.05l-.27-1.28a.06.06,0,0,1,.06-.07h1.31a.06.06,0,0,1,.06.07Z"/><polygon class="cls-3" points="15.52 20 14.88 28.38 15.82 28.92 16.75 28.38 16.08 20 15.52 20"/><path class="cls-4" d="M11,10.68a4.52,4.52,0,0,0-.58,3.16s.46-3.26,1.46-2.94S11,10.68,11,10.68Z"/><path class="cls-1" d="M32,16a15.81,15.81,0,0,1-.49,3.94,15.42,15.42,0,0,1-1.84,4.38l-3.26-3a11.49,11.49,0,0,0,.91-2.41A12,12,0,0,0,27.68,16,11.65,11.65,0,0,0,10,6L6.77,3A16,16,0,0,1,32,16Z"/></g></g></svg>