<svg xmlns="http://www.w3.org/2000/svg" viewBox="0 0 673.79 156.11"><defs><style>.cls-1{fill:#133831;}.cls-2,.cls-3{fill:#1abc9c;}.cls-2{opacity:0.24;}.cls-4{fill:#1fdeb9;}.cls-5{fill:#fff;}.cls-6{fill:#2fd390;}</style></defs><title>hamrologoAsset 1</title><g id="Layer_2" data-name="Layer 2"><g id="Layer_2-2" data-name="Layer 2"><path class="cls-1" d="M49.08,10V38.8H13V10H0V79.8H13V49.87H49.08V79.8h13V10Z"/><path class="cls-1" d="M125.22,21.28,120.11,10H107.34l-4.1,9.12L75.92,79.8H89.29l6.88-16.16h34.92l7,16.16h13.57ZM100.56,53.46l13.07-30.52L126.8,53.46Z"/><path class="cls-1" d="M241.85,32.89l0-22.92H231.15L219,30.61,203.91,56.26l-17.3-28.87L176.18,10H165.5V79.8h12.37V34.11l22.95,37.71h5.79l22.94-38.31.1,46.29h12.27Z"/><path class="cls-1" d="M309.36,56.85a22.88,22.88,0,0,0,11-8.47A21.86,21.86,0,0,0,323.56,41a27.43,27.43,0,0,0,.67-6.21,24,24,0,0,0-3.6-13.27A23,23,0,0,0,310.31,13a38.58,38.58,0,0,0-15.81-3H265.77V79.8h13V59.45H294.5a25.61,25.61,0,0,0,2.69-.1L311.46,79.8h14Zm-2.59-11.72q-4.39,3.65-12.87,3.64H278.73V20.94H293.9q8.48,0,12.87,3.59t4.39,10.28a15.71,15.71,0,0,1-.72,4.9A11.48,11.48,0,0,1,306.77,45.13Z"/><path class="cls-1" d="M409,26.43a34.39,34.39,0,0,0-13.46-12.82,42.27,42.27,0,0,0-38.51,0,34.33,34.33,0,0,0-13.47,12.87,34.73,34.73,0,0,0-4.82,16.05c-.05.77-.07,1.56-.07,2.35a35.35,35.35,0,0,0,4.89,18.41,34.33,34.33,0,0,0,13.47,12.87,42.27,42.27,0,0,0,38.51,0A34.46,34.46,0,0,0,409,63.34,34,34,0,0,0,413.59,50a40.32,40.32,0,0,0,.32-5.09A35.24,35.24,0,0,0,409,26.43ZM397.65,57.5a22.66,22.66,0,0,1-8.78,8.78,26.66,26.66,0,0,1-25.14,0A22.73,22.73,0,0,1,355,57.5a25.1,25.1,0,0,1-3.19-12.62c0-.35,0-.71,0-1.06A24.84,24.84,0,0,1,355,32.26a22.86,22.86,0,0,1,8.78-8.78,26.73,26.73,0,0,1,25.14,0,22.79,22.79,0,0,1,8.78,8.78,25.16,25.16,0,0,1,3.19,12.62,27.78,27.78,0,0,1-.25,3.8A24.33,24.33,0,0,1,397.65,57.5Z"/><path class="cls-2" d="M464.36,0c.4,1.89,3.4,6.07,7.08,10.66C467.76,9.29,464.33,8,461.2,6.84,462.12,2,464.36,0,464.36,0Z"/><path class="cls-3" d="M532.71,72.15a21.5,21.5,0,1,1,43,0Z"/><path class="cls-4" d="M566.26,38.14A12.72,12.72,0,0,1,565,43.76a12,12,0,0,1-10.76,6.89,12.25,12.25,0,0,1-12-12,4.35,4.35,0,0,1,0-.51,12.75,12.75,0,0,1,1.33-5.7.08.08,0,0,1,0,0,12.34,12.34,0,0,1,4.17-4.77,12,12,0,0,1,2.92-1.42h0c.34-.1.67-.18,1-.25s.63-.13,1-.17.71-.1,1-.12l.62,0a12.06,12.06,0,0,1,11.11,7.65A13,13,0,0,1,566.26,38.14Z"/><path class="cls-4" d="M486.89,28.43l-4.53,2.33L469.83,37.2c-8.91-14.9-9.72-24.61-8.63-30.36C462.12,2,464.36,0,464.36,0c.4,1.89,3.4,6.07,7.08,10.66,2.9,3.6,6.22,7.46,9.05,10.66C484.1,25.41,486.89,28.43,486.89,28.43Z"/><path class="cls-4" d="M514.92,26.65a80.89,80.89,0,0,1-5.71,10.47L497.34,30.6l-4.95-2.72S495.25,25,499,21l.12-.13C505.69,13.76,514.9,3.43,515.7.08,515.7.08,523.48,7.58,514.92,26.65Z"/><path class="cls-3" d="M495.7,38.47a.81.81,0,0,1-.78.63H484.74a.8.8,0,0,1-.78-.63L480.47,21.7a.79.79,0,0,1,.78-1h17.16a.8.8,0,0,1,.78,1Z"/><polygon class="cls-3" points="477.4 156.12 462.87 134.7 463.63 108.7 478.93 117.11 482.75 122.46 496.99 147.55 477.4 156.12"/><polygon class="cls-4" points="502.06 145.41 477.59 156.11 477.6 156.02 480.26 118.97 483.11 79.31 486 39.1 493.27 39.1 496.3 75.78 496.59 79.31 502.06 145.41"/><path class="cls-4" d="M670.4,49.82a18.38,18.38,0,0,0-9.18-6.33,16.45,16.45,0,0,0,6.59-6.19,17.55,17.55,0,0,0,2.39-9.18,15.54,15.54,0,0,0-6.68-13.31Q656.83,10,644.46,10H611.74V79.8h34.72a50.88,50.88,0,0,0,11.61-1.19,25.06,25.06,0,0,0,8.74-3.75q6.88-4.87,7-13.78a1.69,1.69,0,0,0,0-.23A17.65,17.65,0,0,0,670.4,49.82ZM645.66,69.63H624.71V49.47h20.95q15.06,0,15.06,10.08T645.66,69.63ZM643.07,39.4H624.71V20.14h18.36q6.78,0,10.42,2.45a8.14,8.14,0,0,1,3.64,7.23A8,8,0,0,1,653.49,37a15.61,15.61,0,0,1-7,2.28A32.31,32.31,0,0,1,643.07,39.4Z"/><path class="cls-4" d="M554.94,7.64a37.25,37.25,0,0,0-33.33,20.92,36.6,36.6,0,0,0-3.67,16.08A37.13,37.13,0,0,0,529.7,71.69a37,37,0,0,0,44.16,4.76A35.65,35.65,0,0,0,578.71,73a36.66,36.66,0,0,0,7.84-9.1,35.81,35.81,0,0,0,4.25-10.15,36.6,36.6,0,0,0,1.14-9.1A37,37,0,0,0,554.94,7.64ZM574,63.75c-.56.56-1.14,1.09-1.74,1.6a27,27,0,0,1-15.73,6.24c-.53,0-1.06,0-1.6,0-.82,0-1.64,0-2.45-.12a26.88,26.88,0,0,1-16-7.13c-.57-.54-1.12-1.1-1.63-1.68a27,27,0,1,1,46.22-11.43,26.11,26.11,0,0,1-2.1,5.58A27.3,27.3,0,0,1,574,63.75Z"/><path class="cls-3" d="M565.32,33.28a.48.48,0,0,1-.18,0c-1.26,0-3.5.22-4.2,2.33-.46,1.38-2.19,1.07-4.32.32-2.49-.86-5.52-2.32-7.68-2.32a12.62,12.62,0,0,1-4.39-.68,6,6,0,0,1-1.06-.52.37.37,0,0,1-.11-.09h0a11,11,0,0,1,4.23-4.81,12,12,0,0,1,3-1.33h0a14.44,14.44,0,0,1,3-.54l.62,0a6.9,6.9,0,0,1,.73,0c6.37,0,9.62,4.91,10.68,6.92A.51.51,0,0,1,565.32,33.28Z"/><path class="cls-5" d="M555.55,53.78a.15.15,0,0,1-.14.11h-1.79a.14.14,0,0,1-.14-.11l-.62-3a.15.15,0,0,1,.14-.17h3a.14.14,0,0,1,.13.17Z"/><polygon class="cls-5" points="553.84 53.89 552.36 73.26 554.51 74.52 556.67 73.26 555.12 53.89 553.84 53.89"/><path class="cls-6" d="M543.35,32.34s-2,2.63-1.34,7.3c0,0,1.06-7.54,3.39-6.79S543.35,32.34,543.35,32.34Z"/><polygon class="cls-5" points="494.21 76.78 483.29 76.81 483.42 75.15 494.97 75.15 494.21 76.78"/><path class="cls-2" d="M515.7.08s7.78,7.5-.78,26.57l-15.83-5.81C505.69,13.76,514.9,3.43,515.7.08Z"/><path class="cls-3" d="M673.79,60.85a1.69,1.69,0,0,1,0,.23c-7.47-6-17.22-13.77-27.34-21.85a15.61,15.61,0,0,0,7-2.28,8,8,0,0,0,3.64-7.13,8.14,8.14,0,0,0-3.64-7.23q-3.65-2.44-10.42-2.45H624.71v1.73l-13-10.32V10h32.72q12.38,0,19.06,4.84a15.54,15.54,0,0,1,6.68,13.31,17.55,17.55,0,0,1-2.39,9.18,16.45,16.45,0,0,1-6.59,6.19,18.38,18.38,0,0,1,9.18,6.33A17.65,17.65,0,0,1,673.79,60.85Z"/><path class="cls-3" d="M591.94,44.64a36.6,36.6,0,0,1-1.14,9.1,35.81,35.81,0,0,1-4.25,10.15l-7.54-7a26.11,26.11,0,0,0,2.1-5.58,27,27,0,0,0-40-29.79l-7.52-7a36.95,36.95,0,0,1,58.35,30.17Z"/><polygon class="cls-4" points="11.57 9.97 12.97 9.97 12.97 10.11 11.57 9.97"/><polygon class="cls-4" points="49.08 9.97 62.05 9.97 62.05 14.99 49.08 13.7 49.08 9.97"/><polygon class="cls-4" points="120.11 9.97 125.22 21.28 103.24 19.09 107.34 9.97 120.11 9.97"/><polygon class="cls-4" points="176.18 9.97 186.61 27.39 165.5 25.29 165.5 9.97 176.18 9.97"/><polygon class="cls-4" points="241.82 9.97 241.85 32.89 219 30.61 231.15 9.97 241.82 9.97"/><path class="cls-4" d="M324.23,34.81a27.43,27.43,0,0,1-.67,6.21l-13.12-1.31a15.71,15.71,0,0,0,.72-4.9q0-6.69-4.39-10.28T293.9,20.94H278.73V36.55l-13-1.28V10H294.5a38.58,38.58,0,0,1,15.81,3,23,23,0,0,1,10.32,8.58A24,24,0,0,1,324.23,34.81Z"/><path class="cls-4" d="M413.91,44.88a40.32,40.32,0,0,1-.32,5.09l-13-1.29a27.78,27.78,0,0,0,.25-3.8,25.16,25.16,0,0,0-3.19-12.62,22.79,22.79,0,0,0-8.78-8.78,26.73,26.73,0,0,0-25.14,0A22.86,22.86,0,0,0,355,32.26a24.84,24.84,0,0,0-3.17,11.56l-13-1.29a34.73,34.73,0,0,1,4.82-16,34.33,34.33,0,0,1,13.47-12.87,42.27,42.27,0,0,1,38.51,0A34.39,34.39,0,0,1,409,26.43,35.24,35.24,0,0,1,413.91,44.88Z"/></g></g></svg>