<svg xmlns="http://www.w3.org/2000/svg" viewBox="0 0 772 178.87"><defs><style>.cls-1{fill:#133831;}.cls-2,.cls-3{fill:#1abc9c;}.cls-2{opacity:0.24;isolation:isolate;}.cls-4{fill:#1fdeb9;}.cls-5{fill:#fff;}</style></defs><title>logohamroAsset 1</title><g id="Layer_2" data-name="Layer 2"><g id="Layer_1-2" data-name="Layer 1"><path class="cls-1" d="M56.23,11.46v33H14.89v-33H0v80H14.89V57.14H56.23V91.43h14.9v-80Z"/><path class="cls-1" d="M143.47,24.38l-5.86-12.92H123l-4.7,10.45L87,91.43H102.3l7.88-18.52h40l8,18.52h15.55ZM115.21,61.25l15-35,15.09,35Z"/><path class="cls-1" d="M277.09,37.68V11.42H264.83L250.91,35.07,233.62,64.46,213.8,31.38l-12-19.92H189.61v80h14.18V39.08l26.29,43.2h6.63L263,38.39l.11,53h14.06Z"/><path class="cls-1" d="M354.44,65.13a26.25,26.25,0,0,0,12.6-9.7A25,25,0,0,0,370.7,47a30.92,30.92,0,0,0,.77-7.11,27.43,27.43,0,0,0-4.12-15.2,26.32,26.32,0,0,0-11.83-9.77,44.26,44.26,0,0,0-18.11-3.43H304.49v80h14.9V68.11h18a28.73,28.73,0,0,0,3.08-.11l16.35,23.43h16Zm-3-13.42q-5,4.17-14.75,4.17H319.34V24h17.38q9.72,0,14.75,4.11t5,11.78a18.14,18.14,0,0,1-.83,5.62A13.21,13.21,0,0,1,351.47,51.71Z"/><path class="cls-1" d="M468.59,30.28a39.39,39.39,0,0,0-15.42-14.69,48.42,48.42,0,0,0-44.12,0A39.71,39.71,0,0,0,388.1,48.73c-.06.88-.08,1.78-.08,2.69a40.48,40.48,0,0,0,5.6,21.09,39.36,39.36,0,0,0,15.43,14.75,48.42,48.42,0,0,0,44.12,0,39.39,39.39,0,0,0,15.42-14.69,38.76,38.76,0,0,0,5.26-15.28,45.68,45.68,0,0,0,.37-5.84A40.41,40.41,0,0,0,468.59,30.28Zm-13,35.6a25.94,25.94,0,0,1-10.06,10.06,30.54,30.54,0,0,1-28.8,0,26.06,26.06,0,0,1-10-10.06,28.8,28.8,0,0,1-3.66-14.46V50.2A28.39,28.39,0,0,1,406.73,37,26.14,26.14,0,0,1,416.79,26.9a30.6,30.6,0,0,1,28.8,0A26.14,26.14,0,0,1,455.65,37a28.9,28.9,0,0,1,3.65,14.46,31.57,31.57,0,0,1-.28,4.35A27.94,27.94,0,0,1,455.59,65.88Z"/><path class="cls-2" d="M532,0c.46,2.17,3.9,7,8.11,12.21L528.4,7.84C529.45,2.29,532,0,532,0Z"/><path class="cls-3" d="M610.33,82.66a24.63,24.63,0,0,1,49.26,0Z"/><path class="cls-4" d="M648.77,43.7a14.51,14.51,0,0,1-1.45,6.44A13.74,13.74,0,0,1,635,58a14,14,0,0,1-13.75-13.75,5.61,5.61,0,0,1,0-.58,14.5,14.5,0,0,1,1.52-6.53h0a14.18,14.18,0,0,1,4.78-5.47,14,14,0,0,1,3.34-1.63h0c.39-.11.77-.2,1.15-.28s.72-.15,1.15-.2.81-.11,1.14-.13H635a13.81,13.81,0,0,1,12.73,8.76A15.11,15.11,0,0,1,648.77,43.7Z"/><path class="cls-4" d="M557.83,32.57l-5.19,2.67-14.35,7.38c-10.21-17.07-11.14-28.2-9.89-34.78C529.45,2.29,532,0,532,0c.46,2.17,3.9,7,8.11,12.21,3.32,4.13,7.13,8.55,10.37,12.22C554.64,29.11,557.83,32.57,557.83,32.57Z"/><path class="cls-4" d="M590,30.53a93.44,93.44,0,0,1-6.54,12l-13.6-7.47-5.68-3.12s3.28-3.3,7.58-7.88l.14-.15c7.52-8.15,18.07-20,19-23.82C590.84.09,599.75,8.68,590,30.53Z"/><path class="cls-3" d="M567.93,44.08a1,1,0,0,1-.9.72H555.37a.91.91,0,0,1-.89-.72l-4-19.22a.9.9,0,0,1,.63-1.11.57.57,0,0,1,.26,0H571a.9.9,0,0,1,.92.91.6.6,0,0,1,0,.23Z"/><polygon class="cls-3" points="546.96 178.87 530.31 154.33 531.18 124.54 548.71 134.17 553.09 140.3 569.4 169.05 546.96 178.87"/><polygon class="cls-4" points="575.21 166.6 547.18 178.86 547.19 178.75 550.24 136.31 553.5 90.87 556.81 44.8 565.14 44.8 568.61 86.82 568.95 90.87 575.21 166.6"/><path class="cls-4" d="M768.08,57.08a21,21,0,0,0-10.52-7.25,18.84,18.84,0,0,0,7.55-7.1,20,20,0,0,0,2.74-10.51A17.79,17.79,0,0,0,760.2,17q-7.66-5.52-21.84-5.51H700.87v80h39.78A58.36,58.36,0,0,0,754,90.06a28.64,28.64,0,0,0,10-4.29q7.88-5.58,8-15.79v-.26A20.25,20.25,0,0,0,768.08,57.08Zm-28.34,22.7h-24V56.68h24Q757,56.68,757,68.23T739.74,79.78Zm-3-34.64h-21V23.07h21q7.77,0,11.94,2.81a9.33,9.33,0,0,1,4.17,8.28,9.16,9.16,0,0,1-4.17,8.23,17.89,17.89,0,0,1-8,2.61A36.59,36.59,0,0,1,736.77,45.14Z"/><path class="cls-4" d="M635.8,8.75a42.69,42.69,0,0,0-38.19,24,42,42,0,0,0-4.2,18.42,42.4,42.4,0,0,0,64.07,36.45,41.39,41.39,0,0,0,5.55-4,41.9,41.9,0,0,0,9-10.43,40.6,40.6,0,0,0,4.87-11.63A42.37,42.37,0,0,0,635.81,8.75ZM657.64,73c-.65.64-1.31,1.25-2,1.83a30.92,30.92,0,0,1-18,7.15h-1.83a18.83,18.83,0,0,1-2.81-.14,30.77,30.77,0,0,1-18.33-8.17c-.65-.61-1.28-1.26-1.87-1.92a30.93,30.93,0,1,1,53-13.1,30.3,30.3,0,0,1-2.41,6.4A31.48,31.48,0,0,1,657.64,73Z"/><path class="cls-3" d="M647.69,38.13h-.21c-1.44,0-4,.25-4.81,2.67-.52,1.58-2.51,1.22-4.95.37-2.85-1-6.32-2.66-8.8-2.66a14.58,14.58,0,0,1-5-.78,6.81,6.81,0,0,1-1.21-.6.41.41,0,0,1-.13-.1h0a12.58,12.58,0,0,1,4.85-5.51A14,14,0,0,1,630.84,30h0a16.67,16.67,0,0,1,3.43-.61H635a5.75,5.75,0,0,1,.83,0c7.3,0,11,5.62,12.24,7.92a.59.59,0,0,1-.26.79Z"/><path class="cls-5" d="M636.5,61.62a.17.17,0,0,1-.16.12h-2.05a.15.15,0,0,1-.16-.12l-.71-3.44a.16.16,0,0,1,.14-.19H637a.17.17,0,0,1,.16.17v0Z"/><polygon class="cls-5" points="634.54 61.74 632.84 83.93 635.31 85.38 637.78 83.93 636 61.74 634.54 61.74"/><path class="cls-3" d="M622.52,37.05s-2.29,3-1.54,8.37c0,0,1.22-8.64,3.89-7.78S622.52,37.05,622.52,37.05Z"/><polygon class="cls-5" points="566.22 87.97 553.71 88 553.86 86.1 567.09 86.1 566.22 87.97"/><path class="cls-2" d="M590.84.09s8.91,8.59-.89,30.44l-18.14-6.65C579.37,15.76,589.92,3.93,590.84.09Z"/><path class="cls-3" d="M772,69.72V70c-8.56-6.87-19.73-15.78-31.33-25a17.83,17.83,0,0,0,8-2.62,9.16,9.16,0,0,0,4.17-8.17,9.33,9.33,0,0,0-4.17-8.28q-4.18-2.79-11.94-2.81h-21v2L700.84,13.23V11.46h37.49q14.17,0,21.84,5.54a17.83,17.83,0,0,1,7.65,15.25,20.13,20.13,0,0,1-2.74,10.52,18.81,18.81,0,0,1-7.55,7.09,21.12,21.12,0,0,1,10.52,7.25A20.25,20.25,0,0,1,772,69.72Z"/><path class="cls-3" d="M678.19,51.14a42.17,42.17,0,0,1-1.31,10.43A40.72,40.72,0,0,1,672,73.2l-8.63-8a29.85,29.85,0,0,0,2.4-6.39A30.93,30.93,0,0,0,620,24.66l-8.61-8A42.33,42.33,0,0,1,678.19,51.2Z"/><polygon class="cls-4" points="13.26 11.42 14.86 11.42 14.86 11.58 13.26 11.42"/></g></g></svg>