<?xml version="1.0" standalone="no"?>
<!DOCTYPE svg PUBLIC "-//W3C//DTD SVG 20010904//EN"
 "http://www.w3.org/TR/2001/REC-SVG-20010904/DTD/svg10.dtd">
<svg version="1.0" xmlns="http://www.w3.org/2000/svg"
 width="501.000000pt" height="501.000000pt" viewBox="0 0 501.000000 501.000000"
 preserveAspectRatio="xMidYMid meet">
<metadata>
Created by potrace 1.11, written by Peter Selinger 2001-2013
</metadata>
<g transform="translate(0.000000,501.000000) scale(0.100000,-0.100000)"
fill="#000000" stroke="none">
<path d="M2300 4998 c-599 -50 -1159 -315 -1582 -748 -62 -63 -123 -127 -134
-141 -324 -397 -506 -821 -568 -1326 -13 -102 -15 -499 -3 -548 3 -12 9 -48
13 -80 4 -33 8 -62 9 -65 1 -3 5 -25 9 -50 21 -123 80 -325 137 -469 34 -84
140 -300 168 -340 10 -14 20 -33 23 -41 8 -22 163 -236 222 -305 93 -110 279
-286 395 -374 289 -217 591 -359 936 -441 215 -51 337 -64 585 -64 173 0 307
9 398 28 15 3 43 8 62 11 198 33 474 129 689 241 237 123 418 258 621 463 355
357 575 767 674 1258 154 759 -50 1539 -558 2130 -381 443 -917 743 -1496 837
-183 30 -419 39 -600 24z m360 -681 c132 -14 171 -21 275 -47 454 -114 831
-380 1087 -768 254 -386 353 -862 273 -1312 -60 -341 -218 -663 -448 -915
l-54 -60 -38 75 c-78 156 -155 262 -285 390 -138 137 -309 248 -484 315 -39
15 -80 31 -91 35 -27 11 -62 20 -155 39 -53 10 -130 22 -158 24 -26 1 5 14 73
31 151 36 308 138 421 274 66 80 136 217 165 327 39 146 27 411 -23 508 -6 13
-6 29 2 48 11 25 9 34 -16 76 -131 226 -341 381 -569 421 -53 9 -258 9 -315 0
-155 -25 -318 -102 -427 -202 -93 -85 -198 -253 -243 -391 -18 -55 -24 -98
-27 -202 -2 -106 0 -131 10 -127 8 3 13 -4 13 -18 3 -151 108 -372 239 -503
108 -109 276 -201 403 -221 50 -8 56 -24 10 -25 -49 -1 -83 -7 -195 -35 -379
-93 -696 -329 -899 -667 l-59 -99 -33 39 c-18 21 -39 45 -46 53 -40 45 -153
228 -196 315 -129 264 -180 479 -185 775 -3 169 3 253 29 400 20 111 100 337
162 457 268 516 747 867 1329 972 33 6 98 14 145 18 47 3 86 6 87 7 4 3 175
-2 223 -7z"/>
</g>
</svg>
